# Blender v3.2.1 OBJ File: 'boxes.blend'
# www.blender.org
mtllib cardboard closed.mtl
o Closed_Box_Cube
v 1.000000 1.000000 -1.000000
v 1.000000 -1.000000 -1.000000
v 1.000000 1.000000 1.000000
v 1.000000 -1.000000 1.000000
v -1.000000 1.000000 -1.000000
v -1.000000 -1.000000 -1.000000
v -1.000000 1.000000 1.000000
v -1.000000 -1.000000 1.000000
v 1.000000 1.000000 0.000000
v -1.000000 1.000000 0.000000
vt 0.002451 0.375000
vt 0.247549 0.375000
vt 0.247549 0.497549
vt 0.002451 0.497549
vt 0.497549 0.002451
vt 0.497549 0.247549
vt 0.252451 0.247549
vt 0.252451 0.002451
vt 0.252451 0.252451
vt 0.497549 0.252451
vt 0.497549 0.497549
vt 0.252451 0.497549
vt 0.247549 0.502451
vt 0.247549 0.747549
vt 0.125000 0.747549
vt 0.002451 0.747549
vt 0.002451 0.502451
vt 0.747549 0.002451
vt 0.747549 0.247549
vt 0.502451 0.247549
vt 0.502451 0.002451
vt 0.002451 0.252451
vt 0.247549 0.252451
vt 0.747549 0.252451
vt 0.747549 0.497549
vt 0.625000 0.497549
vt 0.502451 0.497549
vt 0.502451 0.252451
vn 0.0000 1.0000 0.0000
vn 0.0000 0.0000 1.0000
vn 0.0000 -1.0000 0.0000
vn -1.0000 0.0000 0.0000
vn 0.0000 0.0000 -1.0000
vn 1.0000 0.0000 0.0000
usemtl Procedural_Cardboard
s off
f 9/1/1 10/2/1 7/3/1 3/4/1
f 4/5/2 3/6/2 7/7/2 8/8/2
f 6/9/3 2/10/3 4/11/3 8/12/3
f 8/13/4 7/14/4 10/15/4 5/16/4 6/17/4
f 6/18/5 5/19/5 1/20/5 2/21/5
f 1/22/1 5/23/1 10/2/1 9/1/1
f 2/24/6 1/25/6 9/26/6 3/27/6 4/28/6
o Plane.015_Plane.008
v -1.000000 1.010000 1.000000
v 0.000000 1.010000 1.000000
v -1.000000 1.010000 -1.000000
v 0.000000 1.010000 -1.000000
vt 0.497549 0.747549
vt 0.252451 0.747549
vt 0.252451 0.502451
vt 0.497549 0.502451
vn 0.0000 1.0000 0.0000
usemtl Procedural_Cardboard
s off
f 11/29/7 12/30/7 14/31/7 13/32/7
o Plane.016_Plane.017
v 0.000000 1.010000 1.000000
v 1.000000 1.010000 1.000000
v 0.000000 1.010000 -1.000000
v 1.000000 1.010000 -1.000000
vt 0.747549 0.747549
vt 0.502451 0.747549
vt 0.502451 0.502451
vt 0.747549 0.502451
vn 0.0000 1.0000 0.0000
usemtl Procedural_Cardboard
s off
f 15/33/8 16/34/8 18/35/8 17/36/8
o Plane.017_Plane.018
v -1.000000 -1.010000 1.000000
v 0.000000 -1.010000 1.000000
v -1.000000 -1.010000 -1.000000
v 0.000000 -1.010000 -1.000000
vt 0.002451 0.997549
vt 0.002451 0.752451
vt 0.247549 0.752451
vt 0.247549 0.997549
vn 0.0000 -1.0000 0.0000
usemtl Procedural_Cardboard
s off
f 19/37/9 21/38/9 22/39/9 20/40/9
o Plane.018_Plane.019
v 0.000000 -1.010000 1.000000
v 1.000000 -1.010000 1.000000
v 0.000000 -1.010000 -1.000000
v 1.000000 -1.010000 -1.000000
vt 0.002451 0.247549
vt 0.002451 0.002451
vt 0.247549 0.002451
vt 0.247549 0.247549
vn 0.0000 -1.0000 0.0000
usemtl Procedural_Cardboard
s off
f 23/41/10 25/42/10 26/43/10 24/44/10
